HIERARCHY
ROOT Hips
{
 OFFSET 0.000000 0.000000 0.000000
 CHANNELS 6 Xposition Yposition Zposition Yrotation Xrotation Zrotation
 JOINT Chest
 {
  OFFSET 0.000000 9.303000 0.001900
  CHANNELS 3 Yrotation Xrotation Zrotation
  JOINT Chest2
  {
   OFFSET 0.000000 9.301100 -0.003900
   CHANNELS 3 Yrotation Xrotation Zrotation
   JOINT Chest3
   {
    OFFSET 0.000000 9.262800 0.000000
    CHANNELS 3 Yrotation Xrotation Zrotation
    JOINT Chest4
    {
     OFFSET 0.000000 9.253300 0.000000
     CHANNELS 3 Yrotation Xrotation Zrotation
     JOINT Neck
     {
      OFFSET 0.000000 14.010300 0.000000
      CHANNELS 3 Yrotation Xrotation Zrotation
      JOINT Head
      {
       OFFSET 0.000000 8.657600 -0.008300
       CHANNELS 3 Yrotation Xrotation Zrotation
       End Site
       {
        OFFSET 0.000000 16.540200 -0.004400
       }
      }
     }
     JOINT RightCollar
     {
      OFFSET -2.834100 9.267700 0.000000
      CHANNELS 3 Yrotation Xrotation Zrotation
      JOINT RightShoulder
      {
       OFFSET -13.135200 0.000000 0.000000
       CHANNELS 3 Yrotation Xrotation Zrotation
       JOINT RightElbow
       {
        OFFSET 0.000000 -28.893500 0.000000
        CHANNELS 3 Yrotation Xrotation Zrotation
        JOINT RightWrist
        {
         OFFSET 0.000000 -23.344000 0.000000
         CHANNELS 3 Yrotation Xrotation Zrotation
         End Site
         {
          OFFSET 0.000000 -17.223000 0.000000
         }
        }
       }
      }
     }
     JOINT LeftCollar
     {
      OFFSET 2.834100 9.267700 0.000000
      CHANNELS 3 Yrotation Xrotation Zrotation
      JOINT LeftShoulder
      {
       OFFSET 13.135200 0.000000 0.000000
       CHANNELS 3 Yrotation Xrotation Zrotation
       JOINT LeftElbow
       {
        OFFSET 0.000000 -28.893500 0.000000
        CHANNELS 3 Yrotation Xrotation Zrotation
        JOINT LeftWrist
        {
         OFFSET 0.000000 -23.344000 0.000000
         CHANNELS 3 Yrotation Xrotation Zrotation
         End Site
         {
          OFFSET 0.000000 -17.223000 0.000000
         }
        }
       }
      }
     }
    }
   }
  }
 }
 JOINT RightHip
 {
  OFFSET -7.547200 -0.009500 -0.001000
  CHANNELS 3 Yrotation Xrotation Zrotation
  JOINT RightKnee
  {
   OFFSET 0.000000 -39.762800 0.000900
   CHANNELS 3 Yrotation Xrotation Zrotation
   JOINT RightAnkle
   {
    OFFSET 0.000000 -38.588200 0.001600
    CHANNELS 3 Yrotation Xrotation Zrotation
    JOINT RightToe
    {
     OFFSET 0.000000 -4.693300 10.419700
     CHANNELS 3 Yrotation Xrotation Zrotation
     End Site
     {
      OFFSET 0.000000 -1.379900 5.669300
     }
    }
   }
  }
 }
 JOINT LeftHip
 {
  OFFSET 7.547200 -0.009500 -0.001000
  CHANNELS 3 Yrotation Xrotation Zrotation
  JOINT LeftKnee
  {
   OFFSET 0.000000 -39.762800 0.000900
   CHANNELS 3 Yrotation Xrotation Zrotation
   JOINT LeftAnkle
   {
    OFFSET 0.000000 -38.588200 0.001600
    CHANNELS 3 Yrotation Xrotation Zrotation
    JOINT LeftToe
    {
     OFFSET 0.000000 -4.693300 10.419700
     CHANNELS 3 Yrotation Xrotation Zrotation
     End Site
     {
      OFFSET 0.000000 -1.379900 5.669300
     }
    }
   }
  }
 }
}
MOTION
Frames: 16
Frame Time: 0.008333
0.000000 82.880600 0.000000 0.000000 -5.767877 0.000000 0.000000 11.653817 0.000000 0.000000 -5.885947 0.000000 0.000000 -0.000000 0.000000 0.000000 -0.000000 0.000000 0.000000 12.528835 0.000000 0.000000 0.711642 0.000000 0.000000 -0.000000 0.000000 0.000000 0.000000 -90.000000 0.000000 -2.309062 0.000000 0.000000 2.309062 0.000000 0.000000 -0.000000 0.000000 0.000000 -0.000000 90.000000 0.000000 -2.309062 0.000000 0.000000 2.309062 0.000000 0.000000 8.520406 0.000000 0.000000 1.905762 0.000000 -0.000000 -4.658285 0.000000 0.000000 -0.000000 0.000000 0.000000 8.520406 0.000000 0.000000 1.905762 0.000000 -0.000000 -4.658285 0.000000 0.000000 -0.000000 0.000000
1.494332 45.793727 10.019317 165.040010 -12.023314 0.389184 2.956778 8.918229 0.561283 0.163963 0.493876 0.045674 0.292794 0.878564 0.063960 2.821688 8.270244 0.857821 -1.660210 20.581216 0.219338 -1.822758 -3.887140 0.627992 2.339172 4.009463 -4.165029 -3.782448 -5.726583 -4.298525 -110.982224 -83.048337 129.148262 -8.760421 -4.948359 -29.204437 -9.326502 2.726703 -3.530862 16.065455 -6.899922 7.548465 67.375171 -67.469363 -93.830530 7.224105 0.647350 14.254425 -21.346942 -75.921233 14.627836 -139.549223 83.851827 -140.837926 -9.654657 -9.970514 -1.491595 -0.015607 -0.236176 0.003181 0.777871 -75.076928 21.984963 100.473181 78.942386 97.483338 -11.984851 -9.167937 2.876693 0.101929 0.377035 0.044864
1.496806 45.793118 10.020889 165.039206 -12.011432 0.371999 2.962245 8.909299 0.575884 0.168648 0.504475 0.038795 0.290672 0.873336 0.070391 2.821024 8.276052 0.852386 -1.659086 20.570627 0.225774 -1.822629 -3.886789 0.618060 2.342859 3.999673 -4.155925 -3.787214 -5.721186 -4.295688 -110.776276 -83.055686 128.942130 -8.751816 -4.965911 -29.208617 -9.322457 2.719355 -3.523440 16.059479 -6.894840 7.549713 67.401165 -67.477541 -93.859642 7.228432 0.649805 14.256797 -21.434995 -75.926228 14.703562 -139.645154 83.853381 -140.945465 -9.530720 -9.967008 -1.509478 0.014442 -0.240494 0.012311 0.712736 -75.089151 22.054776 100.472631 78.948232 97.480144 -11.975125 -9.174814 2.882255 0.098503 0.384324 0.040766
1.502787 45.792226 10.024411 165.022381 -11.991610 0.334633 2.988014 8.891635 0.614640 0.167274 0.502500 0.039797 0.291604 0.880112 0.071672 2.825693 8.293085 0.852884 -1.664116 20.548499 0.223953 -1.822686 -3.891247 0.614535 2.342694 3.979136 -4.155311 -3.793893 -5.715726 -4.292244 -110.583355 -83.064639 128.746583 -8.747874 -4.961919 -29.200068 -9.327006 2.695545 -3.520422 16.056388 -6.888176 7.549835 67.421985 -67.486150 -93.880717 7.239407 0.652224 14.256030 -21.611682 -75.930738 14.867117 -139.910130 83.863476 -141.241121 -9.192297 -9.951351 -1.553657 0.085892 -0.248957 0.035629 0.569157 -75.109340 22.220847 100.483261 78.947057 97.489723 -11.961142 -9.192904 2.883394 0.084903 0.399591 0.036586
1.505778 45.791676 10.025455 165.030633 -11.980516 0.314556 2.985271 8.886958 0.634591 0.167267 0.502969 0.039863 0.289081 0.880874 0.071488 2.824356 8.291067 0.852427 -1.663526 20.552600 0.220311 -1.821834 -3.902788 0.613754 2.348006 3.979582 -4.156819 -3.801992 -5.701113 -4.274941 -110.533010 -83.079214 128.700433 -8.746311 -4.950531 -29.186747 -9.334688 2.700213 -3.525842 16.063582 -6.893391 7.549126 67.440306 -67.495500 -93.905193 7.246060 0.661284 14.256017 -21.710490 -75.932491 14.952301 -139.982727 83.863869 -141.323523 -9.080468 -9.952357 -1.567039 0.103254 -0.249392 0.042219 0.480940 -75.121659 22.303744 100.457666 78.941799 97.467234 -11.970937 -9.191343 2.869675 0.089687 0.403559 0.045010
1.506734 45.791522 10.024155 165.038761 -11.978809 0.311340 2.977024 8.892857 0.637096 0.166920 0.503438 0.039905 0.288753 0.880605 0.071334 2.822915 8.289998 0.852657 -1.663664 20.552421 0.217997 -1.819818 -3.911117 0.610745 2.353006 3.978827 -4.159369 -3.804592 -5.685462 -4.258560 -110.514104 -83.091340 128.678813 -8.741958 -4.942062 -29.169156 -9.331250 2.701756 -3.532070 16.061131 -6.899769 7.550745 67.441926 -67.495272 -93.906521 7.254030 0.691274 14.253522 -21.735265 -75.931753 14.964520 -140.037445 83.863237 -141.377313 -9.055383 -9.959341 -1.572732 0.098023 -0.247814 0.042050 0.459004 -75.124919 22.320798 100.464195 78.939753 97.471900 -11.980222 -9.186734 2.867315 0.094141 0.399306 0.047602
1.506873 45.791491 10.022342 165.049020 -11.977526 0.314451 2.966346 8.898655 0.632309 0.164867 0.509600 0.039598 0.289344 0.873919 0.070941 2.820269 8.295399 0.857586 -1.661402 20.544968 0.210987 -1.820054 -3.918542 0.607402 2.357851 3.969491 -4.165679 -3.803029 -5.643544 -4.237253 -110.591931 -83.095699 128.757153 -8.742743 -4.919502 -29.148193 -9.316001 2.707706 -3.546597 16.045580 -6.917659 7.555810 67.445598 -67.495996 -93.907370 7.259202 0.704760 14.249050 -21.728530 -75.934045 14.952916 -140.017312 83.859739 -141.348291 -9.116579 -9.966781 -1.569649 0.080045 -0.247001 0.038599 0.472687 -75.128590 22.300868 100.466569 78.939282 97.473787 -11.989239 -9.179499 2.864876 0.091957 0.393044 0.051638
1.506736 45.791677 10.019950 165.060245 -11.978230 0.320969 2.952851 8.909825 0.620581 0.166478 0.503841 0.040482 0.288950 0.873645 0.071121 2.817285 8.299882 0.862605 -1.658253 20.539138 0.203302 -1.818127 -3.920462 0.604814 2.360945 3.972837 -4.168899 -3.803304 -5.644359 -4.235310 -110.581009 -83.096203 128.748776 -8.746382 -4.918729 -29.146415 -9.307633 2.705357 -3.554417 16.048260 -6.918481 7.556704 67.451827 -67.499244 -93.920815 7.264285 0.714555 14.245777 -21.704818 -75.935512 14.929241 -139.929910 83.853223 -141.247606 -9.239232 -9.974245 -1.558352 0.050835 -0.246840 0.030707 0.505248 -75.130657 22.260916 100.471072 78.942802 97.480691 -11.995003 -9.171634 2.859260 0.096557 0.385793 0.057130
1.508875 45.791789 10.019236 165.057051 -11.971635 0.315175 2.957867 8.904662 0.625706 0.165415 0.504517 0.039228 0.288506 0.873207 0.071114 2.815337 8.300131 0.865326 -1.654886 20.537802 0.200148 -1.810080 -3.919349 0.596701 2.363670 3.997631 -4.172784 -3.805860 -5.660520 -4.229230 -110.505398 -83.095391 128.682611 -8.748120 -4.928624 -29.150970 -9.300522 2.707867 -3.559733 16.056074 -6.902469 7.564085 67.494526 -67.498510 -93.977627 7.263178 0.717213 14.245764 -21.729840 -75.938863 14.952204 -139.981069 83.856602 -141.299118 -9.199580 -9.975013 -1.567283 0.058103 -0.247925 0.034010 0.487701 -75.138580 22.285368 100.489574 78.940528 97.497139 -11.991601 -9.174600 2.862487 0.090941 0.384857 0.054150
1.510798 45.792360 10.017183 165.051254 -11.972617 0.314025 2.964655 8.906688 0.627058 0.161265 0.505297 0.038125 0.288351 0.872969 0.071043 2.810268 8.298706 0.861742 -1.644094 20.538532 0.202112 -1.802307 -3.917016 0.589080 2.372091 4.010402 -4.169776 -3.813400 -5.635838 -4.220961 -110.492691 -83.081151 128.695978 -8.737712 -4.946391 -29.165271 -9.290108 2.710152 -3.557221 16.064762 -6.890716 7.568748 67.524658 -67.502062 -94.008498 7.265777 0.718898 14.235886 -21.740664 -75.932968 14.969088 -139.945292 83.855030 -141.265774 -9.202849 -9.982660 -1.565029 0.057404 -0.243871 0.031385 0.489984 -75.138378 22.291412 100.511421 78.938393 97.521889 -11.996621 -9.177334 2.861440 0.095304 0.382935 0.050738
1.511488 45.793273 10.014131 165.049472 -11.977962 0.321472 2.960482 8.913658 0.616645 0.161214 0.506868 0.039666 0.288246 0.872892 0.071090 2.814083 8.295980 0.861794 -1.637749 20.545028 0.193068 -1.795391 -3.919537 0.587889 2.370079 4.022536 -4.171332 -3.813744 -5.630903 -4.215672 -110.453013 -83.073627 128.670765 -8.742315 -4.945508 -29.174471 -9.289219 2.718310 -3.560016 16.076497 -6.886949 7.571689 67.552443 -67.505894 -94.046597 7.264525 0.725058 14.239784 -21.706971 -75.928631 14.942937 -139.850410 83.847632 -141.158155 -9.284774 -9.992760 -1.558670 0.046246 -0.241717 0.024048 0.531363 -75.131481 22.253384 100.509288 78.935966 97.524629 -12.008321 -9.180628 2.856600 0.100337 0.383135 0.052572
1.513187 45.794036 10.013029 165.042753 -11.973688 0.321189 2.959173 8.916224 0.615726 0.165983 0.502501 0.040596 0.289171 0.872089 0.071081 2.811636 8.297445 0.860823 -1.629393 20.547576 0.191865 -1.786991 -3.919104 0.579855 2.371795 4.025523 -4.172536 -3.812820 -5.628862 -4.212399 -110.336197 -83.068702 128.566948 -8.735854 -4.952441 -29.181744 -9.283686 2.726399 -3.557524 16.088540 -6.884631 7.569134 67.580706 -67.510616 -94.085463 7.255182 0.737645 14.248294 -21.717359 -75.930266 14.957956 -139.882311 83.848599 -141.194242 -9.243811 -9.995981 -1.561770 0.052746 -0.241205 0.024065 0.557687 -75.133071 22.239327 100.493241 78.932977 97.510315 -12.013554 -9.189471 2.859330 0.095184 0.389844 0.050976
1.515968 45.794672 10.013466 165.045070 -11.962704 0.310397 2.956751 8.909279 0.625038 0.166697 0.498731 0.040907 0.287903 0.872829 0.071246 2.806171 8.299194 0.862664 -1.618195 20.552395 0.187895 -1.777488 -3.920251 0.573496 2.374370 4.028507 -4.177267 -3.810678 -5.627425 -4.209219 -110.211227 -83.064473 128.457733 -8.727588 -4.959380 -29.189952 -9.269069 2.735914 -3.556211 16.094487 -6.883846 7.564333 67.595657 -67.518379 -94.094469 7.258781 0.739331 14.231348 -21.784840 -75.932234 15.019007 -139.953288 83.854019 -141.273684 -9.169042 -10.000553 -1.570676 0.063468 -0.238590 0.027111 0.526630 -75.143867 22.272617 100.466781 78.931627 97.485109 -12.016929 -9.189253 2.859964 0.091055 0.392851 0.049531
1.518838 45.795346 10.014382 165.042905 -11.949787 0.299464 2.959207 8.900897 0.635139 0.167937 0.497214 0.041262 0.287891 0.873306 0.071418 2.807179 8.314813 0.865203 -1.613570 20.543455 0.185091 -1.771308 -3.922447 0.570664 2.374944 4.024501 -4.185101 -3.813236 -5.627411 -4.198493 -110.172147 -83.063504 128.433653 -8.729542 -4.964426 -29.190472 -9.266264 2.728587 -3.553133 16.105274 -6.884201 7.557939 67.607398 -67.522153 -94.116273 7.257231 0.742371 14.231260 -21.854954 -75.937635 15.085689 -140.032616 83.860049 -141.362947 -9.072156 -9.997332 -1.584059 0.080620 -0.240772 0.033319 0.492813 -75.156381 22.313483 100.446338 78.928682 97.467946 -12.031358 -9.191007 2.858549 0.093377 0.396825 0.049068
1.521620 45.796057 10.015470 165.029874 -11.936279 0.291200 2.972937 8.889044 0.645164 0.166127 0.504112 0.040832 0.288478 0.874243 0.071529 2.810837 8.311411 0.865571 -1.609261 20.548318 0.184519 -1.766627 -3.923414 0.567528 2.374650 4.019207 -4.186382 -3.802647 -5.612950 -4.193705 -110.235537 -83.063964 128.492797 -8.747404 -4.955837 -29.160616 -9.252948 2.733822 -3.552818 16.105771 -6.882738 7.552616 67.619574 -67.528707 -94.139864 7.253349 0.748212 14.236442 -21.906958 -75.944376 15.149105 -140.047860 83.863509 -141.382788 -9.005889 -9.994095 -1.592432 0.088228 -0.241962 0.035657 0.471643 -75.169322 22.350812 100.435512 78.926984 97.459491 -12.025876 -9.193862 2.855283 0.095448 0.399603 0.049176
1.520997 45.797279 10.013456 165.030702 -11.936534 0.305335 2.970044 8.900297 0.629550 0.166480 0.504441 0.040678 0.293905 0.882394 0.071911 2.807368 8.299359 0.865081 -1.607144 20.549694 0.185359 -1.761544 -3.921565 0.566221 2.376336 4.019146 -4.186712 -3.787934 -5.590847 -4.182486 -110.437992 -83.066387 128.684637 -8.746169 -4.957195 -29.158492 -9.253913 2.737190 -3.553418 16.112425 -6.885854 7.550420 67.607686 -67.519955 -94.119149 7.245824 0.763282 14.233147 -21.871149 -75.947100 15.120503 -139.931841 83.859652 -141.261116 -9.085299 -10.000184 -1.581411 0.062659 -0.240374 0.026693 0.531220 -75.167010 22.289819 100.427509 78.926996 97.452672 -12.029970 -9.192107 2.851945 0.097946 0.396854 0.051408
